# xmcd CD database file
#
# Track frame offsets:
#	183
#	16483
#	31475
#	44000
#	58438
#	77673
#	96653
#	115053
#	137550
#	154213
#	169940
#	182733
#	206000
#	226040
#	240753
#	261400
#	281833
#	316683
#
# Disc length: 4618 seconds
#
# Revision: 0
# Processed by: cddbd v1.4PL0 Copyright (c) Steve Scherf et al.
# Submitted via: CDex 1.40Release
#
DISCID=fe120812
DTITLE=Eric Clapton - Influential Blues
DYEAR=1994
DGENRE=Blues
TTITLE0=Robert Johnson - Keep On Drinking
TTITLE1=Lerroy Carr - How Long?
TTITLE2=Big Masio Merriweather - Kidman Blues
TTITLE3=Big Masio Merriweather - County Jail
TTITLE4=Howlin' Wolf - Room #44
TTITLE5=Jimmy Rogers - Blues All Day Long
TTITLE6=Jimmy Rogers - Going Away
TTITLE7=Muddy Waters - Standing' Round Cryin'
TTITLE8=Freddie King - Hootchie Coochie Man
TTITLE9=Elmore James - It Hurts Me Too
TTITLE10=Elmore James - Five Long Years
TTITLE11=Eddie Boyd - The Third Degree
TTITLE12=Freddie King - Sunday After Awhile
TTITLE13=Freddie King - Tore Down
TTITLE14=Have You Aver Been Mistreated
TTITLE15=Albert King - Born Under A Bad Sign
TTITLE16=Otis Rush - Grown In The Blues
TTITLE17=Robert Johnson - The Crossroads Blues
EXTD=YEAR: 1994 ID3G: 0
EXTT0=
EXTT1=
EXTT2=
EXTT3=
EXTT4=
EXTT5=
EXTT6=
EXTT7=
EXTT8=
EXTT9=
EXTT10=
EXTT11=
EXTT12=
EXTT13=
EXTT14=
EXTT15=
EXTT16=
EXTT17=
PLAYORDER=
